<?xml version="1.0" standalone="no"?>
<svg xmlns:xlink="http://www.w3.org/1999/xlink" id="wave" style="transform:rotate(180deg); transition: 0.3s" viewBox="0 0 1440 100" version="1.1" xmlns="http://www.w3.org/2000/svg"><defs><linearGradient id="sw-gradient-0" x1="0" x2="0" y1="1" y2="0"><stop stop-color="rgba(249, 60, 60, 1)" offset="0%"/><stop stop-color="rgba(249, 60, 60, 1)" offset="100%"/></linearGradient></defs><path style="transform:translate(0, 0px); opacity:1" fill="url(#sw-gradient-0)" d="M0,50L34.3,43.3C68.6,37,137,23,206,20C274.3,17,343,23,411,35C480,47,549,63,617,61.7C685.7,60,754,40,823,40C891.4,40,960,60,1029,68.3C1097.1,77,1166,73,1234,70C1302.9,67,1371,63,1440,63.3C1508.6,63,1577,67,1646,58.3C1714.3,50,1783,30,1851,23.3C1920,17,1989,23,2057,31.7C2125.7,40,2194,50,2263,50C2331.4,50,2400,40,2469,36.7C2537.1,33,2606,37,2674,31.7C2742.9,27,2811,13,2880,21.7C2948.6,30,3017,60,3086,66.7C3154.3,73,3223,57,3291,50C3360,43,3429,47,3497,40C3565.7,33,3634,17,3703,23.3C3771.4,30,3840,60,3909,75C3977.1,90,4046,90,4114,76.7C4182.9,63,4251,37,4320,21.7C4388.6,7,4457,3,4526,10C4594.3,17,4663,33,4731,48.3C4800,63,4869,77,4903,83.3L4937.1,90L4937.1,100L4902.9,100C4868.6,100,4800,100,4731,100C4662.9,100,4594,100,4526,100C4457.1,100,4389,100,4320,100C4251.4,100,4183,100,4114,100C4045.7,100,3977,100,3909,100C3840,100,3771,100,3703,100C3634.3,100,3566,100,3497,100C3428.6,100,3360,100,3291,100C3222.9,100,3154,100,3086,100C3017.1,100,2949,100,2880,100C2811.4,100,2743,100,2674,100C2605.7,100,2537,100,2469,100C2400,100,2331,100,2263,100C2194.3,100,2126,100,2057,100C1988.6,100,1920,100,1851,100C1782.9,100,1714,100,1646,100C1577.1,100,1509,100,1440,100C1371.4,100,1303,100,1234,100C1165.7,100,1097,100,1029,100C960,100,891,100,823,100C754.3,100,686,100,617,100C548.6,100,480,100,411,100C342.9,100,274,100,206,100C137.1,100,69,100,34,100L0,100Z"/></svg>